<mxfile host="app.diagrams.net" modified="2023-10-25T19:05:49.691Z" agent="Mozilla/5.0 (Windows NT 10.0; Win64; x64) AppleWebKit/537.36 (KHTML, like Gecko) Chrome/116.0.0.0 Safari/537.36 OPR/102.0.0.0 (Edition Yx GX)" etag="HPCQ5rowh9eCUh94LoDI" version="22.0.7" type="github">
  <diagram id="C5RBs43oDa-KdzZeNtuy" name="Page-1">
    <mxGraphModel dx="2268" dy="1999" grid="1" gridSize="10" guides="1" tooltips="1" connect="1" arrows="1" fold="1" page="1" pageScale="1" pageWidth="827" pageHeight="1169" math="0" shadow="0">
      <root>
        <mxCell id="WIyWlLk6GJQsqaUBKTNV-0" />
        <mxCell id="WIyWlLk6GJQsqaUBKTNV-1" parent="WIyWlLk6GJQsqaUBKTNV-0" />
        <mxCell id="H65rKkJU24tq7eOzj6Th-0" value="" style="edgeStyle=orthogonalEdgeStyle;rounded=0;orthogonalLoop=1;jettySize=auto;html=1;" parent="WIyWlLk6GJQsqaUBKTNV-1" source="H65rKkJU24tq7eOzj6Th-1" edge="1">
          <mxGeometry relative="1" as="geometry">
            <mxPoint x="160" y="-130" as="targetPoint" />
          </mxGeometry>
        </mxCell>
        <mxCell id="H65rKkJU24tq7eOzj6Th-1" value="&lt;p style=&quot;line-height: 110%;&quot;&gt;&lt;font style=&quot;font-size: 18px;&quot;&gt;init&lt;/font&gt;&lt;/p&gt;" style="ellipse;whiteSpace=wrap;html=1;" parent="WIyWlLk6GJQsqaUBKTNV-1" vertex="1">
          <mxGeometry x="105" y="-230" width="110" height="60" as="geometry" />
        </mxCell>
        <mxCell id="H65rKkJU24tq7eOzj6Th-2" value="&lt;span style=&quot;font-size: 25px;&quot;&gt;Ввод &lt;br&gt;n&lt;br&gt;&lt;/span&gt;" style="shape=parallelogram;perimeter=parallelogramPerimeter;whiteSpace=wrap;html=1;fixedSize=1;" parent="WIyWlLk6GJQsqaUBKTNV-1" vertex="1">
          <mxGeometry x="100" y="-130" width="120" height="60" as="geometry" />
        </mxCell>
        <mxCell id="H65rKkJU24tq7eOzj6Th-3" value="" style="edgeStyle=orthogonalEdgeStyle;rounded=0;orthogonalLoop=1;jettySize=auto;html=1;" parent="WIyWlLk6GJQsqaUBKTNV-1" edge="1">
          <mxGeometry relative="1" as="geometry">
            <mxPoint x="159.99999999999994" y="-70" as="sourcePoint" />
            <mxPoint x="159.99999999999994" y="-30" as="targetPoint" />
          </mxGeometry>
        </mxCell>
        <mxCell id="H65rKkJU24tq7eOzj6Th-4" value="&lt;font style=&quot;font-size: 20px;&quot;&gt;i = 0; i &amp;lt; n; i++&lt;/font&gt;" style="shape=hexagon;perimeter=hexagonPerimeter2;whiteSpace=wrap;html=1;fixedSize=1;" parent="WIyWlLk6GJQsqaUBKTNV-1" vertex="1">
          <mxGeometry x="72.5" y="200" width="175" height="50" as="geometry" />
        </mxCell>
        <mxCell id="H65rKkJU24tq7eOzj6Th-5" value="" style="edgeStyle=orthogonalEdgeStyle;rounded=0;orthogonalLoop=1;jettySize=auto;html=1;" parent="WIyWlLk6GJQsqaUBKTNV-1" edge="1">
          <mxGeometry relative="1" as="geometry">
            <mxPoint x="159.57999999999993" y="250" as="sourcePoint" />
            <mxPoint x="159.57999999999993" y="290" as="targetPoint" />
          </mxGeometry>
        </mxCell>
        <mxCell id="H65rKkJU24tq7eOzj6Th-7" value="&#xa;&lt;div style=&quot;color: rgb(204, 204, 204); background-color: rgb(31, 31, 31); font-family: Consolas, &amp;quot;Courier New&amp;quot;, monospace; font-weight: normal; font-size: 14px; line-height: 19px;&quot;&gt;&lt;br&gt;&lt;/div&gt;&#xa;&#xa;" style="endArrow=classic;html=1;rounded=0;exitX=0.5;exitY=1;exitDx=0;exitDy=0;entryX=0;entryY=0.5;entryDx=0;entryDy=0;" parent="WIyWlLk6GJQsqaUBKTNV-1" source="H65rKkJU24tq7eOzj6Th-20" target="H65rKkJU24tq7eOzj6Th-4" edge="1">
          <mxGeometry width="50" height="50" relative="1" as="geometry">
            <mxPoint x="120" y="329.99999999999955" as="sourcePoint" />
            <mxPoint x="20" y="210" as="targetPoint" />
            <Array as="points">
              <mxPoint x="160" y="410" />
              <mxPoint x="20" y="410" />
              <mxPoint x="20" y="225" />
            </Array>
          </mxGeometry>
        </mxCell>
        <mxCell id="H65rKkJU24tq7eOzj6Th-13" value="a = malloc(n)" style="rounded=0;whiteSpace=wrap;html=1;fontSize=20;" parent="WIyWlLk6GJQsqaUBKTNV-1" vertex="1">
          <mxGeometry x="87.18" y="110" width="145.64" height="51" as="geometry" />
        </mxCell>
        <mxCell id="H65rKkJU24tq7eOzj6Th-14" value="" style="edgeStyle=orthogonalEdgeStyle;rounded=0;orthogonalLoop=1;jettySize=auto;html=1;" parent="WIyWlLk6GJQsqaUBKTNV-1" edge="1">
          <mxGeometry relative="1" as="geometry">
            <mxPoint x="159.57999999999993" y="161" as="sourcePoint" />
            <mxPoint x="159.57999999999993" y="201" as="targetPoint" />
          </mxGeometry>
        </mxCell>
        <mxCell id="H65rKkJU24tq7eOzj6Th-17" value="" style="endArrow=classic;html=1;rounded=0;exitX=1;exitY=0.5;exitDx=0;exitDy=0;endFill=1;entryX=0.5;entryY=0;entryDx=0;entryDy=0;" parent="WIyWlLk6GJQsqaUBKTNV-1" target="H65rKkJU24tq7eOzj6Th-24" edge="1">
          <mxGeometry width="50" height="50" relative="1" as="geometry">
            <mxPoint x="247.5" y="224.99999999999955" as="sourcePoint" />
            <mxPoint x="340" y="300" as="targetPoint" />
            <Array as="points">
              <mxPoint x="340" y="225" />
            </Array>
          </mxGeometry>
        </mxCell>
        <mxCell id="H65rKkJU24tq7eOzj6Th-20" value="&lt;span style=&quot;font-size: 25px;&quot;&gt;Ввод&lt;br&gt;a[i]&lt;br&gt;&lt;/span&gt;" style="shape=parallelogram;perimeter=parallelogramPerimeter;whiteSpace=wrap;html=1;fixedSize=1;" parent="WIyWlLk6GJQsqaUBKTNV-1" vertex="1">
          <mxGeometry x="100.00000000000006" y="291.5" width="120" height="61" as="geometry" />
        </mxCell>
        <mxCell id="H65rKkJU24tq7eOzj6Th-24" value="&lt;span style=&quot;font-size: 25px;&quot;&gt;a&lt;br&gt;&lt;/span&gt;" style="shape=parallelogram;perimeter=parallelogramPerimeter;whiteSpace=wrap;html=1;fixedSize=1;" parent="WIyWlLk6GJQsqaUBKTNV-1" vertex="1">
          <mxGeometry x="280" y="291.5" width="120" height="61" as="geometry" />
        </mxCell>
        <mxCell id="H65rKkJU24tq7eOzj6Th-25" value="" style="edgeStyle=orthogonalEdgeStyle;rounded=0;orthogonalLoop=1;jettySize=auto;html=1;" parent="WIyWlLk6GJQsqaUBKTNV-1" source="H65rKkJU24tq7eOzj6Th-26" edge="1">
          <mxGeometry relative="1" as="geometry">
            <mxPoint x="656" y="-131" as="targetPoint" />
          </mxGeometry>
        </mxCell>
        <mxCell id="H65rKkJU24tq7eOzj6Th-26" value="&lt;p style=&quot;line-height: 110%;&quot;&gt;&lt;font style=&quot;font-size: 18px;&quot;&gt;print&lt;/font&gt;&lt;/p&gt;" style="ellipse;whiteSpace=wrap;html=1;" parent="WIyWlLk6GJQsqaUBKTNV-1" vertex="1">
          <mxGeometry x="601" y="-231" width="110" height="60" as="geometry" />
        </mxCell>
        <mxCell id="H65rKkJU24tq7eOzj6Th-27" value="&lt;span style=&quot;font-size: 25px;&quot;&gt;Ввод &lt;br&gt;a, n&lt;br&gt;&lt;/span&gt;" style="shape=parallelogram;perimeter=parallelogramPerimeter;whiteSpace=wrap;html=1;fixedSize=1;" parent="WIyWlLk6GJQsqaUBKTNV-1" vertex="1">
          <mxGeometry x="596" y="-131" width="120" height="60" as="geometry" />
        </mxCell>
        <mxCell id="H65rKkJU24tq7eOzj6Th-29" value="&lt;font style=&quot;font-size: 20px;&quot;&gt;i = 0; i &amp;lt; n; i++&lt;/font&gt;" style="shape=hexagon;perimeter=hexagonPerimeter2;whiteSpace=wrap;html=1;fixedSize=1;" parent="WIyWlLk6GJQsqaUBKTNV-1" vertex="1">
          <mxGeometry x="562.5" y="110" width="175" height="50" as="geometry" />
        </mxCell>
        <mxCell id="H65rKkJU24tq7eOzj6Th-30" value="" style="edgeStyle=orthogonalEdgeStyle;rounded=0;orthogonalLoop=1;jettySize=auto;html=1;" parent="WIyWlLk6GJQsqaUBKTNV-1" edge="1">
          <mxGeometry relative="1" as="geometry">
            <mxPoint x="649.5799999999999" y="160" as="sourcePoint" />
            <mxPoint x="649.5799999999999" y="200" as="targetPoint" />
          </mxGeometry>
        </mxCell>
        <mxCell id="H65rKkJU24tq7eOzj6Th-31" value="&#xa;&lt;div style=&quot;color: rgb(204, 204, 204); background-color: rgb(31, 31, 31); font-family: Consolas, &amp;quot;Courier New&amp;quot;, monospace; font-weight: normal; font-size: 14px; line-height: 19px;&quot;&gt;&lt;br&gt;&lt;/div&gt;&#xa;&#xa;" style="endArrow=classic;html=1;rounded=0;exitX=0.5;exitY=1;exitDx=0;exitDy=0;entryX=0;entryY=0.5;entryDx=0;entryDy=0;" parent="WIyWlLk6GJQsqaUBKTNV-1" source="H65rKkJU24tq7eOzj6Th-35" target="H65rKkJU24tq7eOzj6Th-29" edge="1">
          <mxGeometry width="50" height="50" relative="1" as="geometry">
            <mxPoint x="610" y="239.99999999999955" as="sourcePoint" />
            <mxPoint x="510" y="120" as="targetPoint" />
            <Array as="points">
              <mxPoint x="650" y="310" />
              <mxPoint x="510" y="310" />
              <mxPoint x="510" y="135" />
            </Array>
          </mxGeometry>
        </mxCell>
        <mxCell id="H65rKkJU24tq7eOzj6Th-34" value="" style="endArrow=classic;html=1;rounded=0;exitX=1;exitY=0.5;exitDx=0;exitDy=0;endFill=1;entryX=0.5;entryY=0;entryDx=0;entryDy=0;" parent="WIyWlLk6GJQsqaUBKTNV-1" edge="1">
          <mxGeometry width="50" height="50" relative="1" as="geometry">
            <mxPoint x="737.5" y="134.99999999999955" as="sourcePoint" />
            <mxPoint x="835" y="202.5" as="targetPoint" />
            <Array as="points">
              <mxPoint x="835" y="135" />
            </Array>
          </mxGeometry>
        </mxCell>
        <mxCell id="H65rKkJU24tq7eOzj6Th-35" value="&lt;span style=&quot;font-size: 25px;&quot;&gt;&amp;nbsp;Вывод&lt;br&gt;a[i]&lt;br&gt;&lt;/span&gt;" style="shape=parallelogram;perimeter=parallelogramPerimeter;whiteSpace=wrap;html=1;fixedSize=1;" parent="WIyWlLk6GJQsqaUBKTNV-1" vertex="1">
          <mxGeometry x="590" y="201.5" width="120" height="61" as="geometry" />
        </mxCell>
        <mxCell id="H65rKkJU24tq7eOzj6Th-37" value="&lt;p style=&quot;line-height: 110%;&quot;&gt;&lt;span style=&quot;font-size: 18px;&quot;&gt;Конец&lt;/span&gt;&lt;/p&gt;" style="ellipse;whiteSpace=wrap;html=1;" parent="WIyWlLk6GJQsqaUBKTNV-1" vertex="1">
          <mxGeometry x="780" y="202.5" width="110" height="60" as="geometry" />
        </mxCell>
        <mxCell id="MTVnitmc1auSQbq-p4DV-9" value="&lt;span style=&quot;font-size: 20px;&quot;&gt;n &amp;lt; 1&lt;/span&gt;" style="rhombus;whiteSpace=wrap;html=1;" parent="WIyWlLk6GJQsqaUBKTNV-1" vertex="1">
          <mxGeometry x="114" y="-29.5" width="92" height="80" as="geometry" />
        </mxCell>
        <mxCell id="MTVnitmc1auSQbq-p4DV-10" value="" style="endArrow=classic;html=1;rounded=0;exitX=0;exitY=0.5;exitDx=0;exitDy=0;endFill=1;entryX=0.5;entryY=0;entryDx=0;entryDy=0;" parent="WIyWlLk6GJQsqaUBKTNV-1" target="MTVnitmc1auSQbq-p4DV-11" edge="1">
          <mxGeometry width="50" height="50" relative="1" as="geometry">
            <mxPoint x="114" y="13" as="sourcePoint" />
            <mxPoint x="-10" y="121" as="targetPoint" />
            <Array as="points">
              <mxPoint x="-10" y="13" />
            </Array>
          </mxGeometry>
        </mxCell>
        <mxCell id="MTVnitmc1auSQbq-p4DV-11" value="&lt;span style=&quot;font-size: 25px;&quot;&gt;Выход&lt;br&gt;&lt;/span&gt;" style="shape=parallelogram;perimeter=parallelogramPerimeter;whiteSpace=wrap;html=1;fixedSize=1;" parent="WIyWlLk6GJQsqaUBKTNV-1" vertex="1">
          <mxGeometry x="-69.99999999999972" y="106" width="120" height="61" as="geometry" />
        </mxCell>
        <mxCell id="MTVnitmc1auSQbq-p4DV-12" value="&lt;font style=&quot;font-size: 20px;&quot;&gt;Да&lt;/font&gt;" style="edgeLabel;html=1;align=center;verticalAlign=middle;resizable=0;points=[];" parent="WIyWlLk6GJQsqaUBKTNV-1" vertex="1" connectable="0">
          <mxGeometry x="-59.99663024081474" y="-5.004357673251548" as="geometry">
            <mxPoint x="122" y="17" as="offset" />
          </mxGeometry>
        </mxCell>
        <mxCell id="MTVnitmc1auSQbq-p4DV-13" value="" style="edgeStyle=orthogonalEdgeStyle;rounded=0;orthogonalLoop=1;jettySize=auto;html=1;exitX=1;exitY=0.5;exitDx=0;exitDy=0;entryX=0.5;entryY=0;entryDx=0;entryDy=0;" parent="WIyWlLk6GJQsqaUBKTNV-1" source="MTVnitmc1auSQbq-p4DV-9" edge="1">
          <mxGeometry relative="1" as="geometry">
            <mxPoint x="170" y="-59" as="sourcePoint" />
            <mxPoint x="160" y="111" as="targetPoint" />
            <Array as="points">
              <mxPoint x="260" y="11" />
              <mxPoint x="260" y="71" />
              <mxPoint x="160" y="71" />
            </Array>
          </mxGeometry>
        </mxCell>
        <mxCell id="MTVnitmc1auSQbq-p4DV-14" value="" style="edgeStyle=orthogonalEdgeStyle;rounded=0;orthogonalLoop=1;jettySize=auto;html=1;" parent="WIyWlLk6GJQsqaUBKTNV-1" edge="1">
          <mxGeometry relative="1" as="geometry">
            <mxPoint x="656" y="-70" as="sourcePoint" />
            <mxPoint x="656" y="-30" as="targetPoint" />
          </mxGeometry>
        </mxCell>
        <mxCell id="MTVnitmc1auSQbq-p4DV-16" value="&lt;span style=&quot;font-size: 20px;&quot;&gt;n &amp;lt; 1&lt;/span&gt;" style="rhombus;whiteSpace=wrap;html=1;" parent="WIyWlLk6GJQsqaUBKTNV-1" vertex="1">
          <mxGeometry x="610" y="-30.5" width="92" height="80" as="geometry" />
        </mxCell>
        <mxCell id="MTVnitmc1auSQbq-p4DV-17" value="" style="endArrow=classic;html=1;rounded=0;exitX=0;exitY=0.5;exitDx=0;exitDy=0;endFill=1;entryX=0.5;entryY=0;entryDx=0;entryDy=0;" parent="WIyWlLk6GJQsqaUBKTNV-1" target="MTVnitmc1auSQbq-p4DV-18" edge="1">
          <mxGeometry width="50" height="50" relative="1" as="geometry">
            <mxPoint x="610" y="12" as="sourcePoint" />
            <mxPoint x="486" y="120" as="targetPoint" />
            <Array as="points">
              <mxPoint x="436" y="12" />
            </Array>
          </mxGeometry>
        </mxCell>
        <mxCell id="MTVnitmc1auSQbq-p4DV-18" value="&lt;span style=&quot;font-size: 25px;&quot;&gt;Выход&lt;br&gt;&lt;/span&gt;" style="shape=parallelogram;perimeter=parallelogramPerimeter;whiteSpace=wrap;html=1;fixedSize=1;" parent="WIyWlLk6GJQsqaUBKTNV-1" vertex="1">
          <mxGeometry x="376.0000000000003" y="100" width="120" height="61" as="geometry" />
        </mxCell>
        <mxCell id="MTVnitmc1auSQbq-p4DV-20" value="" style="edgeStyle=orthogonalEdgeStyle;rounded=0;orthogonalLoop=1;jettySize=auto;html=1;exitX=1;exitY=0.5;exitDx=0;exitDy=0;entryX=0.5;entryY=0;entryDx=0;entryDy=0;" parent="WIyWlLk6GJQsqaUBKTNV-1" source="MTVnitmc1auSQbq-p4DV-16" edge="1">
          <mxGeometry relative="1" as="geometry">
            <mxPoint x="666" y="-60" as="sourcePoint" />
            <mxPoint x="656" y="110" as="targetPoint" />
            <Array as="points">
              <mxPoint x="756" y="10" />
              <mxPoint x="756" y="70" />
              <mxPoint x="656" y="70" />
            </Array>
          </mxGeometry>
        </mxCell>
        <mxCell id="obT8TigOL1kh33aEOIsh-0" value="&lt;p style=&quot;line-height: 110%;&quot;&gt;&lt;span style=&quot;font-size: 18px;&quot;&gt;Конец&lt;/span&gt;&lt;/p&gt;" style="ellipse;whiteSpace=wrap;html=1;" vertex="1" parent="WIyWlLk6GJQsqaUBKTNV-1">
          <mxGeometry x="285" y="390" width="110" height="60" as="geometry" />
        </mxCell>
        <mxCell id="obT8TigOL1kh33aEOIsh-1" value="" style="edgeStyle=orthogonalEdgeStyle;rounded=0;orthogonalLoop=1;jettySize=auto;html=1;entryX=0.5;entryY=0;entryDx=0;entryDy=0;" edge="1" parent="WIyWlLk6GJQsqaUBKTNV-1" target="obT8TigOL1kh33aEOIsh-0">
          <mxGeometry relative="1" as="geometry">
            <mxPoint x="339.40999999999997" y="352.5" as="sourcePoint" />
            <mxPoint x="339.40999999999997" y="392.5" as="targetPoint" />
          </mxGeometry>
        </mxCell>
      </root>
    </mxGraphModel>
  </diagram>
</mxfile>
